<svg width="50" height="50" viewBox="0 0 50 50" fill="none" xmlns="http://www.w3.org/2000/svg">
<path d="M39.5834 8.33398H10.4167C8.75915 8.33398 7.16943 8.99246 5.99733 10.1646C4.82523 11.3367 4.16675 12.9264 4.16675 14.584V35.4173C4.16675 37.0749 4.82523 38.6646 5.99733 39.8367C7.16943 41.0088 8.75915 41.6673 10.4167 41.6673H39.5834C41.241 41.6673 42.8307 41.0088 44.0028 39.8367C45.1749 38.6646 45.8334 37.0749 45.8334 35.4173V14.584C45.8334 12.9264 45.1749 11.3367 44.0028 10.1646C42.8307 8.99246 41.241 8.33398 39.5834 8.33398ZM39.5834 12.5007L26.0417 21.8131C25.725 21.996 25.3658 22.0923 25.0001 22.0923C24.6344 22.0923 24.2751 21.996 23.9584 21.8131L10.4167 12.5007H39.5834Z" fill="white"/>
</svg>
