<svg width="50" height="50" viewBox="0 0 50 50" fill="none" xmlns="http://www.w3.org/2000/svg">
<path d="M39.5832 8.33398H10.4165C8.7589 8.33398 7.16919 8.99246 5.99709 10.1646C4.82498 11.3367 4.1665 12.9264 4.1665 14.584V35.4173C4.1665 37.0749 4.82498 38.6646 5.99709 39.8367C7.16919 41.0088 8.7589 41.6673 10.4165 41.6673H39.5832C41.2408 41.6673 42.8305 41.0088 44.0026 39.8367C45.1747 38.6646 45.8332 37.0749 45.8332 35.4173V14.584C45.8332 12.9264 45.1747 11.3367 44.0026 10.1646C42.8305 8.99246 41.2408 8.33398 39.5832 8.33398V8.33398ZM39.5832 12.5007L26.0415 21.8131C25.7248 21.996 25.3655 22.0923 24.9998 22.0923C24.6341 22.0923 24.2749 21.996 23.9582 21.8131L10.4165 12.5007H39.5832Z" fill="#D65273"/>
</svg>
