<svg width="50" height="50" viewBox="0 0 50 50" fill="none" xmlns="http://www.w3.org/2000/svg">
<path d="M45.4282 20.9191H43.7501V20.8327H25.0001V29.166H36.774C35.0563 34.0171 30.4407 37.4994 25.0001 37.4994C18.097 37.4994 12.5001 31.9025 12.5001 24.9994C12.5001 18.0962 18.097 12.4993 25.0001 12.4993C28.1865 12.4993 31.0855 13.7014 33.2928 15.665L39.1855 9.77227C35.4647 6.30456 30.4876 4.16602 25.0001 4.16602C13.4949 4.16602 4.16675 13.4941 4.16675 24.9994C4.16675 36.5046 13.4949 45.8327 25.0001 45.8327C36.5053 45.8327 45.8334 36.5046 45.8334 24.9994C45.8334 23.6025 45.6897 22.2389 45.4282 20.9191Z" fill="#FFC107"/>
<path d="M6.56885 15.3025L13.4136 20.3223C15.2657 15.7368 19.7511 12.4993 25.0001 12.4993C28.1866 12.4993 31.0855 13.7014 33.2928 15.665L39.1855 9.77227C35.4647 6.30456 30.4876 4.16602 25.0001 4.16602C16.998 4.16602 10.0584 8.68372 6.56885 15.3025Z" fill="#FF3D00"/>
<path d="M25 45.8331C30.3812 45.8331 35.2708 43.7737 38.9677 40.4247L32.5198 34.9685C30.3579 36.6126 27.7161 37.5019 25 37.4997C19.5812 37.4997 14.9802 34.0445 13.2469 29.2227L6.45312 34.457C9.90104 41.2039 16.9031 45.8331 25 45.8331Z" fill="#4CAF50"/>
<path d="M45.4281 20.9204H43.75V20.834H25V29.1673H36.774C35.9523 31.4761 34.4722 33.4935 32.5167 34.9704L32.5198 34.9684L38.9677 40.4246C38.5115 40.8392 45.8333 35.4173 45.8333 25.0007C45.8333 23.6038 45.6896 22.2402 45.4281 20.9204Z" fill="#1976D2"/>
</svg>
