<svg width="50" height="50" viewBox="0 0 50 50" fill="none" xmlns="http://www.w3.org/2000/svg">
<circle cx="24.9998" cy="25" r="25" fill="#D65273" fill-opacity="0.1"/>
<path d="M19.2496 20.6C19.0996 16.7 24.9996 10.5 24.9996 10.5C24.9996 10.5 25.6254 12.3815 27.3996 14.55C29.1996 16.75 35.6493 24.3315 36.3496 30.15C36.9996 35.55 35.1996 38.3 35.1996 38.3C35.1996 38.3 32.452 31.6249 28.7496 28.7C23.7496 24.75 19.3938 24.3472 19.2496 20.6Z" fill="#D65273"/>
<path d="M15.6997 25.5996C15.6997 25.5996 17.8997 25.9996 19.4997 26.7496C21.1476 27.5221 22.8997 28.8496 22.8997 28.8496C22.8997 28.8496 20.5997 29.2996 18.2997 32.5496C16.6012 34.9496 15.4997 38.2996 15.4997 38.2996C15.4997 38.2996 14.0805 35.8496 14.1497 31.1496C14.1997 27.7496 15.6997 25.5996 15.6997 25.5996Z" fill="#D65273"/>
</svg>
