<svg width="111" height="54" viewBox="0 0 111 54" fill="none" xmlns="http://www.w3.org/2000/svg">
<path d="M1.72491 35V17.24H9.23691C10.8369 17.24 12.0849 17.616 12.9809 18.368C13.8929 19.12 14.5249 20.16 14.8769 21.488C15.2449 22.816 15.4289 24.36 15.4289 26.12C15.4289 29.112 14.9169 31.344 13.8929 32.816C12.8689 34.272 11.3169 35 9.23691 35H1.72491ZM5.27691 31.808H8.87691C9.98091 31.808 10.7569 31.328 11.2049 30.368C11.6529 29.408 11.8769 27.992 11.8769 26.12C11.8769 24.584 11.7649 23.408 11.5409 22.592C11.3169 21.76 10.9809 21.192 10.5329 20.888C10.1009 20.584 9.54891 20.432 8.87691 20.432H5.27691V31.808ZM25.459 35.12C24.035 35.12 22.899 34.936 22.051 34.568C21.203 34.184 20.587 33.52 20.203 32.576C19.835 31.616 19.651 30.28 19.651 28.568C19.651 26.824 19.827 25.472 20.179 24.512C20.531 23.552 21.123 22.88 21.955 22.496C22.787 22.112 23.915 21.92 25.339 21.92C26.603 21.92 27.619 22.048 28.387 22.304C29.171 22.56 29.731 23.008 30.067 23.648C30.419 24.288 30.595 25.192 30.595 26.36C30.595 27.672 30.219 28.576 29.467 29.072C28.715 29.568 27.699 29.816 26.419 29.816H23.179C23.195 30.472 23.291 30.992 23.467 31.376C23.643 31.76 23.955 32.04 24.403 32.216C24.867 32.392 25.531 32.48 26.395 32.48H30.163V34.568C29.539 34.696 28.851 34.824 28.099 34.952C27.363 35.064 26.483 35.12 25.459 35.12ZM23.131 27.704H26.059C26.539 27.704 26.891 27.608 27.115 27.416C27.339 27.208 27.451 26.864 27.451 26.384C27.451 25.68 27.283 25.192 26.947 24.92C26.627 24.632 26.091 24.488 25.339 24.488C24.523 24.488 23.947 24.712 23.611 25.16C23.291 25.592 23.131 26.44 23.131 27.704ZM40.0057 35.144C39.4617 35.144 38.8697 35.12 38.2297 35.072C37.6057 35.04 37.0057 34.984 36.4297 34.904C35.8537 34.808 35.3817 34.696 35.0137 34.568V32.48H40.7257C41.2217 32.48 41.5897 32.416 41.8297 32.288C42.0697 32.144 42.1897 31.856 42.1897 31.424V31.016C42.1897 30.696 42.0857 30.448 41.8777 30.272C41.6697 30.096 41.2857 30.008 40.7257 30.008H38.7097C37.9737 30.008 37.3097 29.904 36.7177 29.696C36.1257 29.472 35.6537 29.104 35.3017 28.592C34.9657 28.08 34.7977 27.384 34.7977 26.504V25.76C34.7977 24.944 34.9577 24.256 35.2777 23.696C35.5977 23.136 36.1337 22.712 36.8857 22.424C37.6377 22.136 38.6697 21.992 39.9817 21.992C40.5097 21.992 41.0697 22.024 41.6617 22.088C42.2697 22.136 42.8377 22.208 43.3657 22.304C43.9097 22.4 44.3417 22.496 44.6617 22.592V24.68H39.2617C38.7977 24.68 38.4457 24.76 38.2057 24.92C37.9657 25.064 37.8457 25.344 37.8457 25.76V26.144C37.8457 26.56 37.9737 26.832 38.2297 26.96C38.4857 27.088 38.8777 27.152 39.4057 27.152H41.4697C42.7817 27.152 43.7337 27.456 44.3257 28.064C44.9337 28.656 45.2377 29.48 45.2377 30.536V31.688C45.2377 33 44.7817 33.904 43.8697 34.4C42.9737 34.896 41.6857 35.144 40.0057 35.144ZM51.9548 20.216C51.6188 20.216 51.4508 20.056 51.4508 19.736V17.384C51.4508 17.048 51.6188 16.88 51.9548 16.88H54.6908C54.9948 16.88 55.1468 17.048 55.1468 17.384V19.736C55.1468 20.056 54.9948 20.216 54.6908 20.216H51.9548ZM51.5228 35V22.112H55.0748V35H51.5228ZM85.9666 35V22.112H88.7026L89.5186 24.08C89.9826 23.488 90.5026 22.984 91.0786 22.568C91.6706 22.152 92.3666 21.944 93.1666 21.944C93.3426 21.944 93.5186 21.952 93.6946 21.968C93.8866 21.984 94.0626 22.016 94.2226 22.064V25.712C93.9666 25.68 93.7026 25.656 93.4306 25.64C93.1746 25.608 92.9346 25.592 92.7106 25.592C92.0066 25.592 91.4066 25.712 90.9106 25.952C90.4146 26.176 89.9506 26.52 89.5186 26.984V35H85.9666ZM102.547 40.688L103.939 35C102.851 35 101.971 34.704 101.299 34.112C100.627 33.52 100.147 32.664 99.859 31.544L97.435 22.112H101.131L103.171 30.824C103.267 31.224 103.411 31.512 103.603 31.688C103.795 31.864 103.979 31.976 104.155 32.024C104.331 32.072 104.467 32.096 104.563 32.096L106.891 22.112H110.491L106.651 38.312L105.499 40.688H102.547Z" fill="#454F51"/>
<path d="M65.325 19.4401C65.19 15.9301 70.5 10.3501 70.5 10.3501C70.5 10.3501 71.0633 12.0435 72.66 13.9951C74.28 15.9751 80.0847 22.7985 80.715 28.0351C81.3 32.8951 79.68 35.3701 79.68 35.3701C79.68 35.3701 77.2072 29.3625 73.875 26.7301C69.375 23.1751 65.4548 22.8126 65.325 19.4401Z" fill="#D65273"/>
<path d="M62.1301 23.9399C62.1301 23.9399 64.1101 24.2999 65.5501 24.9749C67.0333 25.6702 68.6101 26.8649 68.6101 26.8649C68.6101 26.8649 66.5401 27.2699 64.4701 30.1949C62.9415 32.3549 61.9501 35.3699 61.9501 35.3699C61.9501 35.3699 60.6729 33.1649 60.7351 28.9349C60.7801 25.8749 62.1301 23.9399 62.1301 23.9399Z" fill="#454F51"/>
</svg>
