<svg width="100" height="100" viewBox="0 0 100 100" fill="none" xmlns="http://www.w3.org/2000/svg">
<path d="M30.8333 38.6667C30.3334 25.6667 50 5 50 5C50 5 52.086 11.2718 58 18.5C64 25.8333 85.4988 51.1051 87.8334 70.5C90 88.5 84 97.6667 84 97.6667C84 97.6667 74.8413 75.4163 62.5 65.6667C45.8334 52.5 31.3138 51.1574 30.8333 38.6667Z" fill="#D65273"/>
<path d="M18.9999 55.3333C18.9999 55.3333 26.3333 56.6666 31.6666 59.1666C37.1598 61.7415 43 66.1666 43 66.1666C43 66.1666 35.3333 67.6666 27.6666 78.4999C22.0051 86.4999 18.3333 97.6666 18.3333 97.6666C18.3333 97.6666 13.6029 89.4999 13.8333 73.8333C13.9999 62.4999 18.9999 55.3333 18.9999 55.3333Z" fill="#454F51"/>
</svg>
